<?xml version="1.0" standalone="no"?>
<!DOCTYPE svg PUBLIC "-//W3C//DTD SVG 20010904//EN"
 "http://www.w3.org/TR/2001/REC-SVG-20010904/DTD/svg10.dtd">
<svg version="1.0" xmlns="http://www.w3.org/2000/svg"
 width="75.000000pt" height="75.000000pt" viewBox="0 0 75.000000 75.000000"
 preserveAspectRatio="xMidYMid meet">
<metadata>
Created by potrace 1.14, written by Peter Selinger 2001-2017
</metadata>
<g transform="translate(0.000000,75.000000) scale(0.100000,-0.100000)"
fill="#000000" stroke="none">
<path d="M240 733 c-129 -45 -197 -132 -216 -275 -4 -33 -2 -38 15 -38 13 0
18 6 16 18 -1 9 2 23 7 29 6 7 8 20 4 28 -4 11 -2 14 6 9 8 -5 9 -2 5 10 -4 9
-3 15 2 12 4 -3 16 9 26 28 20 37 93 90 151 111 155 56 339 -38 385 -195 7
-25 18 -48 24 -52 16 -12 37 -9 29 4 -4 7 -3 8 5 4 18 -12 1 -28 -23 -22 -20
5 -21 1 -22 -42 0 -26 -6 -63 -14 -82 -7 -19 -12 -41 -11 -49 1 -7 -2 -10 -8
-6 -6 3 -16 -5 -23 -19 -6 -14 -16 -26 -22 -26 -6 0 -2 -7 8 -15 11 -8 25 -15
30 -15 6 0 3 5 -6 11 -9 5 -15 16 -12 24 4 8 10 12 15 9 5 -3 7 -10 4 -15 -4
-5 -1 -9 4 -9 14 0 14 17 1 25 -5 3 -10 12 -10 18 1 7 12 -1 26 -18 15 -18 22
-23 18 -11 -6 15 -4 17 7 11 8 -5 7 -1 -3 12 -25 28 -22 40 4 17 12 -10 18
-14 15 -8 -4 7 0 17 8 24 8 7 12 16 9 22 -3 5 0 15 6 23 6 8 9 23 5 35 -5 15
-10 18 -24 11 -13 -7 -17 -5 -18 10 -1 10 3 19 8 19 6 0 7 -4 4 -10 -3 -5 -2
-10 3 -10 18 0 21 29 4 34 -12 3 -11 4 3 3 12 -2 19 -9 17 -19 -1 -9 2 -19 7
-22 14 -9 4 122 -13 169 -7 22 -19 39 -26 37 -6 -1 -9 2 -5 8 19 30 -77 128
-165 169 -68 31 -189 38 -260 14z m447 -258 c0 -8 -4 -12 -9 -9 -5 3 -6 10 -3
15 9 13 12 11 12 -6z m9 -167 c-1 -7 -5 -19 -9 -25 -5 -7 -6 -17 -3 -22 3 -5
-1 -14 -8 -20 -10 -8 -16 -9 -21 -1 -3 6 -10 8 -15 5 -5 -3 -2 8 6 25 9 16 23
34 32 40 22 12 21 12 18 -2z"/>
<path d="M666 283 c-8 -24 -7 -33 2 -32 4 1 6 6 4 11 -1 6 3 16 9 24 7 9 8 14
1 14 -6 0 -13 -8 -16 -17z"/>
<path d="M243 558 c-32 -42 -19 -114 24 -124 34 -9 56 16 56 62 0 53 -54 95
-80 62z"/>
<path d="M412 563 c-19 -8 -40 -55 -35 -83 5 -36 27 -54 56 -46 45 11 59 95
20 124 -18 13 -21 13 -41 5z"/>
<path d="M154 432 c-23 -16 -23 -42 1 -69 20 -23 27 -26 42 -17 23 15 20 64
-4 81 -19 15 -24 15 -39 5z"/>
<path d="M500 420 c-23 -23 -25 -39 -7 -64 28 -39 84 13 66 62 -10 27 -33 28
-59 2z"/>
<path d="M37 353 c8 -32 19 -62 24 -68 6 -6 6 2 0 18 -6 16 -12 46 -13 68 -1
24 -6 39 -14 39 -9 0 -9 -13 3 -57z"/>
<path d="M271 336 c-46 -62 -55 -95 -35 -125 19 -26 44 -27 74 -1 29 25 51 25
84 -1 29 -23 60 -19 76 10 14 28 5 55 -40 116 -37 50 -44 55 -80 55 -36 0 -43
-5 -79 -54z"/>
<path d="M550 150 c-13 -8 -12 -10 3 -10 9 0 17 5 17 10 0 12 -1 12 -20 0z"/>
<path d="M507 134 c3 -7 9 -14 14 -14 14 0 10 17 -5 23 -10 4 -13 1 -9 -9z"/>
<path d="M217 121 c-10 -14 -10 -14 4 -4 9 7 18 10 21 7 3 -3 8 -1 12 4 9 16
-24 9 -37 -7z"/>
<path d="M270 130 c0 -5 5 -10 10 -10 6 0 10 5 10 10 0 6 -4 10 -10 10 -5 0
-10 -4 -10 -10z"/>
<path d="M306 128 c3 -5 10 -6 15 -3 13 9 11 12 -6 12 -8 0 -12 -4 -9 -9z"/>
<path d="M347 124 c4 -10 2 -15 -4 -11 -5 3 -10 0 -10 -7 0 -8 6 -12 14 -9 15
6 17 29 3 38 -6 4 -7 -1 -3 -11z"/>
<path d="M450 130 c0 -5 5 -10 11 -10 5 0 7 5 4 10 -3 6 -8 10 -11 10 -2 0 -4
-4 -4 -10z"/>
<path d="M575 129 c-4 -5 3 -8 14 -6 28 4 34 12 11 14 -11 1 -22 -2 -25 -8z"/>
<path d="M395 121 c-3 -6 4 -15 16 -21 17 -10 20 -9 14 1 -6 9 -3 11 9 6 10
-4 15 -3 11 4 -4 5 -16 7 -27 3 -14 -4 -18 -2 -14 5 4 6 5 11 2 11 -3 0 -7 -4
-11 -9z"/>
<path d="M485 110 c3 -5 8 -10 11 -10 2 0 4 5 4 10 0 6 -5 10 -11 10 -5 0 -7
-4 -4 -10z"/>
<path d="M545 110 c3 -5 8 -10 11 -10 2 0 4 5 4 10 0 6 -5 10 -11 10 -5 0 -7
-4 -4 -10z"/>
<path d="M130 89 c0 -5 5 -7 10 -4 6 3 10 8 10 11 0 2 -4 4 -10 4 -5 0 -10 -5
-10 -11z"/>
<path d="M456 92 c-2 -4 2 -16 10 -27 8 -10 14 -14 14 -8 0 7 -5 15 -10 18 -6
4 -8 11 -5 16 4 5 4 9 1 9 -3 0 -7 -3 -10 -8z"/>
<path d="M306 68 c3 -4 9 -8 15 -8 5 0 9 4 9 8 0 5 -7 9 -15 9 -8 0 -12 -4 -9
-9z"/>
<path d="M370 72 c0 -5 7 -9 15 -9 8 0 12 4 9 9 -3 4 -9 8 -15 8 -5 0 -9 -4
-9 -8z"/>
<path d="M433 63 c0 -11 7 -20 14 -20 10 0 10 4 1 16 -7 9 -13 18 -15 20 -1 2
-1 -5 0 -16z"/>
<path d="M229 53 c-13 -16 -12 -17 4 -4 9 7 17 15 17 17 0 8 -8 3 -21 -13z"/>
</g>
</svg>
